<?xml version="1.0" standalone="no"?><!DOCTYPE svg PUBLIC "-//W3C//DTD SVG 1.1//EN" "http://www.w3.org/Graphics/SVG/1.1/DTD/svg11.dtd"><svg t="1509516260804" class="icon" style="" viewBox="0 0 1024 1024" version="1.1" xmlns="http://www.w3.org/2000/svg" p-id="5507" xmlns:xlink="http://www.w3.org/1999/xlink" width="32" height="32"><defs><style type="text/css"></style></defs><path d="M16 336.213h130.347c17.493 0 33.529 1.849 48.107 5.547 14.578 3.698 27.093 8.96 37.547 15.787 10.453 6.827 18.596 15.004 24.427 24.533 5.831 9.529 8.747 20.124 8.747 31.787 0 7.253-0.782 13.902-2.347 19.947-1.564 6.044-4.124 11.769-7.68 17.173-3.556 5.404-8.32 10.596-14.293 15.573-5.973 4.978-13.298 9.956-21.973 14.933 8.96 2.844 17.173 6.649 24.64 11.413 7.467 4.764 13.938 10.276 19.413 16.533 5.476 6.258 9.742 13.227 12.8 20.907 3.058 7.68 4.587 15.858 4.587 24.533 0 11.947-2.738 23.076-8.213 33.387-5.476 10.311-13.227 19.307-23.253 26.987-10.027 7.68-22.115 13.724-36.267 18.133-14.151 4.409-29.831 6.613-47.040 6.613h-149.547v-303.787zM90.453 467.84h49.28c7.822 0 14.827-1.244 21.013-3.733 6.187-2.489 11.413-5.938 15.68-10.347 4.267-4.409 7.538-9.636 9.813-15.68 2.276-6.044 3.413-12.693 3.413-19.947 0-7.822-1.387-15.040-4.16-21.653-2.773-6.613-7.076-12.267-12.907-16.96-5.831-4.693-13.227-8.356-22.187-10.987-8.96-2.631-19.627-3.947-32-3.947h-27.947v103.253zM90.453 608.853h41.173c12.089 0 22.542-1.316 31.36-3.947 8.818-2.631 16.107-6.222 21.867-10.773 5.76-4.551 10.027-9.991 12.8-16.32 2.773-6.329 4.16-13.262 4.16-20.8 0-8.533-1.28-16.427-3.84-23.68-2.56-7.253-6.684-13.547-12.373-18.88-5.689-5.333-13.191-9.529-22.507-12.587-9.316-3.058-20.658-4.587-34.027-4.587h-38.613v111.573zM402.56 640h-68.907v-321.067l68.907-19.2v340.267zM573.867 644.267c-18.205 0-35.058-2.987-50.56-8.96-15.502-5.973-28.871-14.187-40.107-24.64-11.236-10.453-20.018-22.791-26.347-37.013-6.329-14.222-9.493-29.511-9.493-45.867 0-17.636 3.164-33.884 9.493-48.747 6.329-14.862 15.111-27.662 26.347-38.4 11.236-10.738 24.569-19.129 40-25.173 15.431-6.044 32.249-9.067 50.453-9.067 18.205 0 35.093 2.951 50.667 8.853 15.573 5.902 29.013 14.044 40.32 24.427 11.307 10.382 20.16 22.542 26.56 36.48 6.4 13.938 9.6 28.942 9.6 45.013 0 16.925-3.2 32.853-9.6 47.787-6.4 14.933-15.253 27.982-26.56 39.147-11.307 11.164-24.711 19.982-40.213 26.453-15.502 6.471-32.355 9.707-50.56 9.707v0zM581.973 616.32c6.4 0 12.267-2.062 17.6-6.187 5.333-4.124 9.92-9.671 13.76-16.64 3.84-6.969 6.862-15.004 9.067-24.107 2.204-9.102 3.307-18.631 3.307-28.587 0-14.649-1.067-28.444-3.2-41.387-2.133-12.942-5.653-24.249-10.56-33.92-4.907-9.671-11.307-17.351-19.2-23.040-7.893-5.689-17.529-8.533-28.907-8.533-5.404 0-10.631 2.027-15.68 6.080-5.049 4.053-9.493 9.493-13.333 16.32-3.84 6.827-6.933 14.72-9.28 23.68-2.347 8.96-3.52 18.347-3.52 28.16 0 14.791 1.351 28.729 4.053 41.813 2.702 13.085 6.649 24.533 11.84 34.347 5.191 9.813 11.484 17.6 18.88 23.36 7.396 5.76 15.787 8.64 25.173 8.64v0zM996.693 426.24v24.107h-42.027c3.698 5.689 6.684 11.804 8.96 18.347 2.276 6.542 3.413 13.653 3.413 21.333 0 12.658-2.88 23.964-8.64 33.92-5.76 9.956-13.831 18.347-24.213 25.173-10.382 6.827-22.791 12.053-37.227 15.68-14.436 3.627-30.4 5.44-47.893 5.44-4.978 0-10.169-0.32-15.573-0.96-5.404-0.64-10.311-1.387-14.72-2.24-2.987 2.418-5.369 5.298-7.147 8.64-1.778 3.342-2.667 6.862-2.667 10.56 0 1.138 0.32 2.204 0.96 3.2 0.64 0.996 2.169 1.956 4.587 2.88 2.418 0.924 5.938 1.778 10.56 2.56 4.622 0.782 10.844 1.529 18.667 2.24 7.822 0.711 17.6 1.387 29.333 2.027 11.733 0.64 25.849 1.244 42.347 1.813 15.218 0.569 28.018 2.169 38.4 4.8 10.382 2.631 18.738 6.116 25.067 10.453 6.329 4.338 10.88 9.458 13.653 15.36 2.773 5.902 4.16 12.48 4.16 19.733 0 12.8-3.413 24.391-10.24 34.773-6.827 10.382-16.64 19.2-29.44 26.453-12.8 7.253-28.444 12.871-46.933 16.853-18.489 3.982-39.324 5.973-62.507 5.973-20.907 0-39.182-1.102-54.827-3.307-15.645-2.204-28.693-5.333-39.147-9.387-10.453-4.053-18.276-8.924-23.467-14.613-5.191-5.689-7.787-12.018-7.787-18.987 0-5.12 1.493-10.169 4.48-15.147 2.987-4.978 6.862-9.92 11.627-14.827 4.764-4.907 10.169-9.707 16.213-14.4 6.044-4.693 12.196-9.387 18.453-14.080-8.818-2.987-15.893-6.72-21.227-11.2-5.333-4.48-8-9.564-8-15.253 0-3.982 1.209-8.107 3.627-12.373 2.418-4.267 5.724-8.462 9.92-12.587 4.196-4.124 9.067-8.036 14.613-11.733 5.547-3.698 11.52-6.969 17.92-9.813-7.538-3.413-14.293-7.182-20.267-11.307-5.973-4.124-11.058-8.818-15.253-14.080-4.196-5.262-7.431-11.164-9.707-17.707-2.276-6.542-3.413-13.938-3.413-22.187 0-12.942 2.88-24.462 8.64-34.56 5.76-10.098 13.689-18.631 23.787-25.6 10.098-6.969 22.009-12.231 35.733-15.787 13.725-3.556 28.551-5.333 44.48-5.333 7.538 0 14.969 0.391 22.293 1.173 7.324 0.782 14.187 1.884 20.587 3.307 6.4 1.422 12.124 3.022 17.173 4.8 5.049 1.778 9.067 3.733 12.053 5.867h70.613zM907.093 642.773c-10.382 0-20.764-0.178-31.147-0.533-10.382-0.356-20.231-0.818-29.547-1.387-9.316-0.569-17.742-1.173-25.28-1.813-7.538-0.64-13.653-1.244-18.347-1.813-4.978 3.982-8.782 8.853-11.413 14.613-2.631 5.76-3.947 11.413-3.947 16.96 0 4.267 1.636 8.356 4.907 12.267 3.271 3.911 8.178 7.36 14.72 10.347 6.542 2.987 14.684 5.369 24.427 7.147 9.742 1.778 21.084 2.667 34.027 2.667 14.080 0 26.667-1.031 37.76-3.093 11.093-2.062 20.516-4.729 28.267-8 7.751-3.271 13.653-6.969 17.707-11.093 4.053-4.124 6.080-8.249 6.080-12.373 0-4.124-1.138-7.716-3.413-10.773-2.276-3.058-5.511-5.547-9.707-7.467-4.196-1.92-9.244-3.342-15.147-4.267-5.902-0.924-12.551-1.387-19.947-1.387v0zM856.96 552.107c5.12 0 10.062-1.422 14.827-4.267 4.764-2.844 9.031-6.684 12.8-11.52 3.769-4.836 6.756-10.347 8.96-16.533 2.204-6.187 3.307-12.622 3.307-19.307 0-9.813-1.28-19.058-3.84-27.733-2.56-8.676-6.044-16.249-10.453-22.72-4.409-6.471-9.529-11.591-15.36-15.36-5.831-3.769-12.018-5.653-18.56-5.653-6.258 0-11.591 1.493-16 4.48-4.409 2.987-8.071 7.004-10.987 12.053-2.916 5.049-5.049 10.916-6.4 17.6-1.351 6.684-2.027 13.796-2.027 21.333 0 9.102 1.031 17.742 3.093 25.92 2.062 8.178 5.013 15.36 8.853 21.547 3.84 6.187 8.462 11.093 13.867 14.72 5.404 3.627 11.378 5.44 17.92 5.44v0z" p-id="5508" fill="#cdcdcd"></path></svg>