<?xml version="1.0" standalone="no"?><!DOCTYPE svg PUBLIC "-//W3C//DTD SVG 1.1//EN" "http://www.w3.org/Graphics/SVG/1.1/DTD/svg11.dtd"><svg t="1509517880934" class="icon" style="" viewBox="0 0 1024 1024" version="1.1" xmlns="http://www.w3.org/2000/svg" p-id="7398" xmlns:xlink="http://www.w3.org/1999/xlink" width="32" height="32"><defs><style type="text/css"></style></defs><path d="M473.406 402.158c-11.026 3.818-22.052 6.786-33.504 9.33 4.242 11.452 6.786 23.326 6.786 35.626 0 71.672-44.106 126.382-114.506 139.53-21.206 4.24-33.504 13.146-33.504 36.048 0 64.886 171.336 20.782 171.336 140.376 0 97.12-65.736 128.928-153.95 128.928-72.522 0-155.22-24.174-155.22-111.54 0-50.892 30.958-80.156 77.186-95.424v-1.696c-19.508-11.876-28.414-30.536-28.414-53.438 0-21.628 4.666-48.348 26.718-58.102v-1.698c-42.834-14.418-70.826-73.37-70.826-116.204 0-79.306 61.496-137.41 139.956-137.41 26.292 0 52.588 6.786 75.49 19.934 31.806 0 63.192-8.482 92.454-19.934v85.674z m-159.036 329.528c-30.112 0-67.01 6.362-67.01 44.106 0 38.17 43.684 42.836 72.948 42.836 30.958 0 64.04-7.634 64.04-44.532-0.002-37.32-41.14-42.41-69.978-42.41z m-5.514-338.436c-39.018 0-52.59 25.87-52.59 61.496 0 35.2 15.27 57.254 52.59 57.254 36.896 0 50.468-23.75 50.468-58.102 0-31.808-15.268-60.648-50.468-60.648z m252.764-137.408c-33.504 0-58.526-29.262-58.526-61.496 0-32.656 24.598-62.342 58.526-62.342 33.506 0 57.254 30.536 57.254 62.342s-24.598 61.496-57.254 61.496z m-47.498 434.282c1.696-19.084 1.696-37.744 1.696-56.83v-258.28c0-18.236 0.424-36.472-1.696-54.286h94.15c-2.122 17.388-1.698 35.2-1.698 52.588v259.974c0 19.086 0 37.746 1.698 56.83h-94.15z m349.034-11.028c-22.476 12.298-48.348 16.542-73.792 16.542-90.758 0-101.362-71.674-101.362-145.468v-148.858h0.85v-1.698c-5.514 0-10.604-0.848-15.694-0.848-8.48 0-16.962 1.272-25.022 2.544v-80.58h40.714v-32.232c0-12.724-0.426-25.446-2.544-37.746h96.272c-3.392 23.326-2.544 46.652-2.544 69.976h72.522v80.58c-12.298 0-24.598-1.698-36.472-1.698h-36.048v154.798c0 25.022 5.514 55.556 36.896 55.556 16.542 0 32.656-4.664 46.226-13.994v83.126z" fill="#cdcdcd" p-id="7399"></path></svg>