<?xml version="1.0" standalone="no"?><!DOCTYPE svg PUBLIC "-//W3C//DTD SVG 1.1//EN" "http://www.w3.org/Graphics/SVG/1.1/DTD/svg11.dtd"><svg t="1509532328039" class="icon" style="" viewBox="0 0 1024 1024" version="1.1" xmlns="http://www.w3.org/2000/svg" p-id="9497" xmlns:xlink="http://www.w3.org/1999/xlink" width="64" height="64"><defs><style type="text/css"></style></defs><path d="M354.467836 472.607029 118.158648 472.607029C53.028438 472.607029 0.005674 419.584265 0.005674 354.450813L0.005674 118.141624C0.005674 53.022764 53.028438 0 118.158648 0l236.309189 0c65.110754 0 118.133518 53.021143 118.133518 118.141624l0 236.309189C472.601355 419.584265 419.578591 472.607029 354.467836 472.607029M354.467836 1024 118.158648 1024C53.028438 1024 0.005674 970.978857 0.005674 905.868103L0.005674 669.515141c0-65.109133 53.022764-118.131897 118.152973-118.131897l236.309189 0c65.110754 0 118.133518 53.022764 118.133518 118.131897l0 236.352962C472.601355 970.978857 419.578591 1024 354.467836 1024M905.865671 1024 669.532164 1024c-65.133452 0-118.154594-53.021143-118.154594-118.131897l0-78.798912c0-65.154528 53.021143-118.131897 118.154594-118.131897l236.331886 0c65.110754 0 118.130276 52.977369 118.130276 118.131897l0 78.798912C1023.995947 970.978857 970.974804 1024 905.865671 1024M905.865671 630.136761 669.532164 630.136761c-65.133452 0-118.154594-53.0179-118.154594-118.127033L551.377569 118.141624C551.377569 53.022764 604.398712 0 669.532164 0l236.331886 0c65.110754 0 118.130276 53.021143 118.130276 118.141624l0 393.864861C1023.995947 577.118861 970.974804 630.136761 905.865671 630.136761" p-id="9498" fill="#4586FF"></path></svg>