<?xml version="1.0" standalone="no"?><!DOCTYPE svg PUBLIC "-//W3C//DTD SVG 1.1//EN" "http://www.w3.org/Graphics/SVG/1.1/DTD/svg11.dtd"><svg class="icon" style="" viewBox="0 0 1024 1024" version="1.1" xmlns="http://www.w3.org/2000/svg" p-id="20260" xmlns:xlink="http://www.w3.org/1999/xlink" width="32" height="32"><defs><style type="text/css"><![CDATA[

]]></style></defs><path d="M841.019549 958.945355 199.432145 958.945355c-32.895201 0-67.143213-14.090926-93.059466-39.368636-25.922393-25.232684-41.297568-57.712423-41.297568-89.75214L65.075111 180.350554c0-33.054837 16.019859-63.670112 44.169989-85.059258 24.696472-18.783809 57.05546-29.683043 90.198302-29.683043l344.94117 0c17.309224 0 31.330566 13.778818 31.330566 30.615275 0 16.8559-14.021342 30.640857-31.330566 30.640857L199.432145 126.864386c-33.986045 0-71.459518 21.00643-71.459518 53.486168l0 649.473001c0 33.437553 37.109176 67.839061 71.459518 67.839061l641.588427 0c33.335223 0 53.019541-34.734082 53.019541-67.839061L894.040113 497.92647c0-16.86204 14.149255-30.512944 31.451316-30.512944s31.451316 13.650905 31.451316 30.512944l0 331.897086c0 32.275077-10.260691 62.915935-29.53671 86.981027C905.430534 944.234305 874.981035 958.945355 841.019549 958.945355L841.019549 958.945355zM500.146021 550.557154c-10.158361 0-20.316721-3.780093-28.061103-11.320836-15.495926-15.099906-15.495926-39.573297 0-54.673204L891.186112 76.379575c15.495926-15.099906 40.62014-15.099906 56.116065 0s15.495926 51.544957 0 66.61928L540.172643 539.236318C532.427238 546.777061 510.291079 550.557154 500.146021 550.557154L500.146021 550.557154zM500.146021 550.557154" p-id="20261" fill="#ffffff"></path></svg>