<?xml version="1.0" standalone="no"?><!DOCTYPE svg PUBLIC "-//W3C//DTD SVG 1.1//EN" "http://www.w3.org/Graphics/SVG/1.1/DTD/svg11.dtd"><svg class="icon" style="" viewBox="0 0 1024 1024" version="1.1" xmlns="http://www.w3.org/2000/svg" p-id="16452" xmlns:xlink="http://www.w3.org/1999/xlink" width="32" height="32"><defs><style type="text/css"><![CDATA[

]]></style></defs><path d="M512.23536 893.874337c-105.960287 0-211.920574-0.051165-317.880861 0.035816-26.41051 0.021489-50.53393-7.394411-72.256674-22.095227-31.954783-21.624507-51.333132-51.736315-58.414411-89.651856-0.946558-5.069459-1.204431-10.330276-1.206478-15.503089-0.060375-168.973436-0.01842-337.947895-0.085958-506.921331-0.00921-22.51683 6.318916-43.319621 17.113773-62.674435 10.43056-18.702967 25.067932-33.964556 43.011606-45.678342 19.382443-12.653181 40.430828-20.915355 63.940265-21.620413 12.678764-0.38067 25.357528-1.071402 38.037315-1.075495 200.480011-0.068562 400.960021-0.112564 601.439008 0.017396 32.122605 0.020466 61.210084 10.003841 86.314855 30.124088 22.992667 18.426675 37.912471 42.583864 45.564755 70.855768 2.666736 9.854439 3.598968 20.449751 3.612271 30.709419 0.211824 168.786171 0.270153 337.572342 0.026606 506.358513-0.037862 26.312272-9.404184 50.034557-24.635073 71.303976-13.253862 18.510586-30.184463 33.023114-50.747801 42.840714-17.434068 8.322549-35.806507 13.06148-55.389518 13.036921C724.530464 893.805776 618.382912 893.874337 512.23536 893.874337zM512.564865 188.284247c-104.090707 0-208.181413 0.106424-312.271096-0.082888-22.897499-0.041956-42.042535 7.490601-57.96211 24.12035-13.983479 14.606673-21.255093 31.922037-21.278629 51.788503-0.193405 164.293857-0.12075 328.588737-0.060375 492.882594 0.002047 5.362124 0.110517 10.856255 1.221828 16.063861 7.583722 35.536354 36.930097 62.062498 73.90522 62.125943 208.930473 0.35918 417.86197 0.157589 626.793466 0.209778 13.912871 0.00307 27.120684-2.597151 39.300075-9.413394 25.76071-14.417361 40.510646-36.639478 40.599673-65.944921 0.502443-165.41847 0.252757-330.837964 0.189312-496.257457-0.002047-4.607948-0.213871-9.356089-1.306762-13.797237-4.459568-18.132986-12.663414-34.045397-28.0478-45.567825-13.505595-10.115382-28.409027-16.114003-45.437865-16.117073C722.996528 188.275038 617.780185 188.284247 512.564865 188.284247z" p-id="16453" fill="#696e78"></path><path d="M179.487907 231.081982c10.121522-0.98749 18.164708 4.080945 25.889647 10.577916 12.990872 10.924817 26.313296 21.456684 39.474037 32.17991 11.165294 9.097192 22.297842 18.235316 33.44881 27.349905 13.151531 10.749832 26.304086 21.497617 39.46278 32.238238 9.292644 7.585769 18.608823 15.142885 27.889187 22.745027 13.146415 10.769274 26.241664 21.601994 39.411615 32.341592 11.147898 9.090029 22.379707 18.077727 33.562397 27.126824 13.481036 10.907421 26.983561 21.788236 40.410362 32.762171 11.304464 9.238408 22.506597 18.60166 33.766035 27.894304 6.838755 5.644557 13.740956 11.213389 20.530592 16.916275 2.312672 1.942235 4.359284 1.659803 6.483668-0.088004 10.985192-9.039887 21.954011-18.10024 32.946366-27.131941 13.129019-10.786671 26.260084-21.571295 39.418778-32.32215 11.43033-9.339716 22.896476-18.633383 34.351366-27.943422 13.031804-10.592242 26.074865-21.170159 39.10053-31.771611 11.167341-9.089006 22.323425-18.192338 33.471322-27.304879 13.153578-10.752902 26.28362-21.534456 39.440267-32.283264 11.432377-9.340739 22.87908-18.664082 34.334993-27.975145 13.030781-10.590196 26.089192-21.144576 39.115879-31.739888 7.163143-5.826705 14.034645-12.047384 21.484314-17.477047 10.522658-7.668657 22.334681-8.597819 34.092469-3.527336 12.343119 5.323239 18.833951 15.265682 19.7406 28.78765 1.006933 15.002692-7.108908 24.870434-18.116613 33.456996-12.07399 9.41851-23.799032 19.282159-35.71134 28.9084-17.216103 13.911848-34.508955 27.730575-51.685149 41.691541-13.044084 10.601452-25.916253 21.415752-38.942941 32.039717-15.439644 12.591783-31.003108 25.032116-46.436612 37.632085-11.308557 9.232269-22.434965 18.689664-33.750685 27.913746-13.006222 10.602476-26.180266 20.999266-39.191604 31.594579-11.319813 9.218966-22.490224 18.622126-33.774221 27.885094-12.844539 10.544147-25.746384 21.018709-38.613436 31.534204-9.718339 7.941879-19.573801 15.724123-29.057803 23.937179-3.89982 3.37691-6.598278 3.847631-10.812253 0.284479-13.522991-11.434423-27.458375-22.379707-41.172725-33.590026-13.014408-10.638291-25.908066-21.425985-38.933731-32.04995-15.439644-12.591783-31.007201-25.028023-46.440705-37.627992-11.308557-9.232269-22.430872-18.694781-33.746592-27.91784-13.006222-10.602476-26.183336-20.99415-39.195697-31.589462-11.320836-9.217942-22.485107-18.627243-33.771151-27.889187-12.844539-10.5421-25.744337-21.016663-38.624692-31.514761-11.443633-9.326413-22.887266-18.651802-34.343179-27.961842-13.030781-10.590196-26.083052-21.155832-39.111786-31.748075-8.306176-6.752798-16.362666-13.3214-19.290345-24.706705C141.097552 251.339352 158.061922 229.534743 179.487907 231.081982z" p-id="16454" fill="#696e78"></path></svg>