<?xml version="1.0" standalone="no"?><!DOCTYPE svg PUBLIC "-//W3C//DTD SVG 1.1//EN" "http://www.w3.org/Graphics/SVG/1.1/DTD/svg11.dtd"><svg class="icon" style="" viewBox="0 0 1025 1024" version="1.1" xmlns="http://www.w3.org/2000/svg" p-id="10446" xmlns:xlink="http://www.w3.org/1999/xlink" width="32.03125" height="32"><defs><style type="text/css"><![CDATA[

]]></style></defs><path d="M0 511.475213c0-191.073623 104.931777-357.699858 260.371091-445.505662 74.340541-41.98295 160.251994-65.969551 251.744106-65.969551 282.79613 0 512.089598 228.986275 512.089598 511.449614 0.025599 282.540136-229.242269 511.526412-512.089598 511.526412C229.267868 1023.001625 0 794.01535 0 511.475213zM512.115197 63.972801c-247.494613 0-448.116797 200.366191-448.116797 447.528012 0.025599 247.161821 200.622184 447.553611 448.116797 447.553611 247.443414 0 448.065598-200.366191 448.065598-447.553611C960.180795 264.338992 759.58421 63.972801 512.115197 63.972801L512.115197 63.972801zM376.336192 375.901002l362.077348-90.41694-90.544936 361.642159-362.077348 90.41694L376.336192 375.901002 376.336192 375.901002zM665.404165 358.39104l-243.808305 62.692833-62.308842 243.040324 243.321917-62.232044L665.404165 358.39104 665.404165 358.39104zM481.933552 481.370366c16.639584-16.665183 43.698108-16.665183 60.337692 0 16.690783 16.613985 16.690783 43.646909 0 60.260893-16.639584 16.613985-43.698108 16.613985-60.337692 0C465.242769 525.017275 465.242769 498.00995 481.933552 481.370366L481.933552 481.370366z" p-id="10447" fill="#696e78"></path></svg>