<?xml version="1.0" standalone="no"?><!DOCTYPE svg PUBLIC "-//W3C//DTD SVG 1.1//EN" "http://www.w3.org/Graphics/SVG/1.1/DTD/svg11.dtd"><svg class="icon" style="" viewBox="0 0 1024 1024" version="1.1" xmlns="http://www.w3.org/2000/svg" p-id="14077" xmlns:xlink="http://www.w3.org/1999/xlink" width="32" height="32"><defs><style type="text/css"><![CDATA[

]]></style></defs><path d="M111.577734 870.259375l-2.987109 0c-35.108203-0.921875-61.546875-20.400391-78.675391-58.068359-17.270313-38.234375-19.615234-78.46875-20.539063-113.071875 0-2.130859 0-4.484375 0-6.75l0-3.199219c1.563281-80.101172 16.488281-160.134375 45.627734-244.348047 25.016406-72.563281 55.364063-131.838672 92.890234-181.233984 31.557422-41.789063 63.254687-69.505859 99.642188-86.919531 42.570313-20.541016 80.811328-22.386719 117.480078-5.971484 14.427734 6.537891 28.925781 12.438281 43.425781 18.265625 11.016797 4.475391 21.959766 8.883594 32.834766 13.502734 47.901172 20.539063 96.866016 19.544922 147.260156-2.987109 8.884766-3.908203 17.833984-7.461719 26.863281-11.226563 12.160156-5.044922 24.375-10.160938 36.390625-15.777344 42.855469-20.041797 86.851172-16.985156 134.470313 9.524219 39.511719 22.033203 73.060547 55.365234 105.608984 104.898047 44.919922 67.590625 77.757813 147.547266 100.567969 244.137109 15.212891 64.388672 21.318359 124.942969 18.832031 185.066016-1.630859 36.679688-7.816406 65.951172-19.466797 92.325781-21.755859 49.183594-57.146484 59.489844-83.021094 59.489844l0 0c-9.449219 0-19.611328-1.355469-30.205078-3.986328-26.429688-6.462891-51.804688-19.113281-79.733984-39.65625-18.410156-13.646484-36.46875-27.574219-54.591797-41.509766-18.125-13.994141-36.3125-27.996094-54.726563-41.644531-34.603516-25.587891-76.890234-53.236328-127.349219-63.675781-79.605469-16.214844-151.8875-0.144531-213.507422 47.685547-22.170703 17.201172-43.353516 36.890625-63.820313 55.935547-9.380859 8.671875-18.761719 17.333984-28.214844 25.863281-27.289844 24.453125-61.2625 50.460938-106.465625 59.132422C136.098438 868.983984 123.515234 870.259375 111.577734 870.259375zM314.557813 190.383203c-16.701953 0-34.255859 4.547656-53.658984 14.003906-31.910937 15.280078-60.056641 40.010547-88.554297 77.751563-35.535937 46.834766-64.463672 103.3375-88.414844 172.776953-28.001953 81.233203-42.357422 157.990625-43.850391 234.965234l0 8.304688c0.992969 39.447266 4.405078 71.652344 17.767578 101.421484 12.295703 27.087891 28.214844 39.447266 51.527344 40.013672l2.274219 15.357422 0-15.357422c9.807422 0 20.823047-1.201172 32.834766-3.410156 37.739062-7.318359 67.517578-30.273438 91.68125-51.882813 9.383594-8.451172 18.623828-16.912109 27.791016-25.505859 21.039063-19.478516 42.715625-39.669922 65.955859-57.714844 68.653125-53.304688 149.747656-71.425391 238.376172-53.515625 56.285156 11.726563 102.054297 41.355469 139.366797 69.007813 18.625 13.791016 36.957031 28.072266 55.296875 42.076172 17.908203 13.859375 35.820313 27.640625 54.015625 41.076172 24.521484 18.125 46.408203 29.140625 68.794922 34.683594 8.248047 1.919922 15.919922 2.986328 22.888672 2.986328l0 0c25.158203 0 42.570313-13.082031 55.009766-41.220703 10.091797-22.744141 15.490234-48.619141 16.845703-81.233984 2.414063-57.291016-3.486328-115.136328-17.984375-176.825781-21.960938-92.895313-53.441406-169.653906-96.302344-234.253125-29.779297-45.275391-59.839453-75.408984-94.952734-94.953906-39.089844-21.817188-72.49375-24.518359-106.608984-8.600391-12.292969 5.830859-25.013672 11.088672-37.667969 16.274219-8.8125 3.695313-17.478516 7.321094-26.082031 11.158203-57.994141 25.869141-116.059375 27.006641-171.780859 3.055859-10.588672-4.619141-21.390625-9.096484-32.123828-13.289063-14.994922-6.113281-29.920703-12.155078-44.633594-18.834766C339.929688 193.084375 327.564453 190.383203 314.557813 190.383203z" p-id="14078" fill="#696e78"></path><path d="M237.056 358.898l60.412 0 0 206.582-60.412 0 0-206.582Z" p-id="14079" fill="#696e78"></path><path d="M163.966 431.982l206.582 0 0 60.412-206.582 0 0-60.412Z" p-id="14080" fill="#696e78"></path><path d="M678.03 473.55m-30.316 0a15.158 15.158 0 1 0 60.632 0 15.158 15.158 0 1 0-60.632 0Z" p-id="14081" fill="#696e78"></path><path d="M731.694 412.918m-30.316 0a15.158 15.158 0 1 0 60.632 0 15.158 15.158 0 1 0-60.632 0Z" p-id="14082" fill="#696e78"></path><path d="M786.36 473.55m-30.316 0a15.158 15.158 0 1 0 60.632 0 15.158 15.158 0 1 0-60.632 0Z" p-id="14083" fill="#696e78"></path><path d="M731.694 531.854m-30.316 0a15.158 15.158 0 1 0 60.632 0 15.158 15.158 0 1 0-60.632 0Z" p-id="14084" fill="#696e78"></path></svg>