<?xml version="1.0" standalone="no"?><!DOCTYPE svg PUBLIC "-//W3C//DTD SVG 1.1//EN" "http://www.w3.org/Graphics/SVG/1.1/DTD/svg11.dtd"><svg class="icon" style="" viewBox="0 0 1024 1024" version="1.1" xmlns="http://www.w3.org/2000/svg" p-id="5864" xmlns:xlink="http://www.w3.org/1999/xlink" width="32" height="32"><defs><style type="text/css"><![CDATA[

]]></style></defs><path d="M943.747 456.154 530.853 80.372c-10.887-9.892-27.409-9.611-37.983 0.268L80.267 456.173c-11.45 10.402-12.29 28.128-1.867 39.577 5.528 6.07 14.111 11.152 21.713 11.152 6.724 0 14.466-4.409 19.845-9.303l392.048-356.614 392.03 356.614c5.378 4.893 13.14 8.303 19.864 8.303 7.62 0 16.203-4.082 21.713-10.171C956.017 484.282 955.177 466.576 943.747 456.154zM797.521 494.758c-16.147 0-29.253 13.105-29.253 29.253l0 374.24-100.268 0L668 681c0-17.121-13.879-31-31-31L387 650c-17.121 0-31 13.879-31 31l0 217.25-100.236 0L255.764 524.01c0-16.167-13.105-29.253-29.253-29.253-16.147 0-29.253 13.105-29.253 29.253l0 407.493c0 16.167 13.105 29.25 29.253 29.25L797.52 960.753c2.018 0 3.989-0.204 5.892-0.595 13.325-2.725 23.358-14.511 23.358-28.658L826.77 524.01C826.772 507.843 813.667 494.758 797.521 494.758zM418 712l188 0 0 186.251-188 0L418 712z" p-id="5865" fill="#696e78"></path></svg>