<?xml version="1.0" standalone="no"?><!DOCTYPE svg PUBLIC "-//W3C//DTD SVG 1.1//EN" "http://www.w3.org/Graphics/SVG/1.1/DTD/svg11.dtd"><svg width="200" height="200" viewBox="0 0 200 200" version="1.1" xmlns="http://www.w3.org/2000/svg" xmlns:xlink="http://www.w3.org/1999/xlink"><defs><style type="text/css"><![CDATA[
@font-face { font-family: ifont; src: url(http://at.alicdn.com/t/font_1442373896_4754455.eot?#iefix) format(embedded-opentype), url(http://at.alicdn.com/t/font_1442373896_4754455.woff) format(woff), url(http://at.alicdn.com/t/font_1442373896_4754455.ttf) format(truetype), url(http://at.alicdn.com/t/font_1442373896_4754455.svg#ifont) format(svg); }

]]></style></defs><g class="transform-group"><g transform="scale(0.1953125, 0.1953125)"><path d="M334.792596 193.026672c-112.231356 50.208765-180.160861 168.347034-165.393577 289.43876 20.674197 191.974688 225.93944 308.636229 401.670116 230.369626l72.35969-32.488024 93.033887 93.033887c72.35969 72.35969 95.987344 88.603702 110.754628 73.836418 14.767284-14.767284-1.476728-38.394938-75.313147-112.231356l-93.033887-93.033887 31.011296-57.592406c33.964752-63.49932 41.348394-169.823762 14.767284-237.753267-54.63895-144.71938-245.136909-220.032527-389.856289-153.57975zm222.985984 44.301851c91.557159 41.348394 131.428825 107.801171 131.428825 215.602342 0 109.277899-41.348394 174.253948-137.335738 217.07907-91.557159 41.348394-178.684133 26.581111-255.474008-42.825123-126.99864-115.184813-101.894257-311.589686 50.208765-386.902833 76.789875-38.394938 132.905553-38.394938 211.172157-2.953457z" fill="#272636"></path></g></g></svg>