<?xml version="1.0" standalone="no"?><!DOCTYPE svg PUBLIC "-//W3C//DTD SVG 1.1//EN" "http://www.w3.org/Graphics/SVG/1.1/DTD/svg11.dtd"><svg class="icon" style="" viewBox="0 0 1024 1024" version="1.1" xmlns="http://www.w3.org/2000/svg" p-id="17289" xmlns:xlink="http://www.w3.org/1999/xlink" width="32" height="32"><defs><style type="text/css"><![CDATA[

]]></style></defs><path d="M513.6722 301.9059c-116.6234 0-211.5041 94.7241-211.5041 211.1642 0 116.4431 94.8808 211.1672 211.5041 211.1672 116.6264 0 211.5297-94.7241 211.5297-211.1672C725.2029 396.63 630.2986 301.9059 513.6722 301.9059zM513.6722 654.6125c-78.1722 0-141.7656-63.4819-141.7656-141.5414 0-78.0575 63.5945-141.5383 141.7656-141.5383 78.1947 0 141.7912 63.4808 141.7912 141.5383C655.4634 591.1306 591.8679 654.6125 513.6722 654.6125zM952.0097 363.7094h-42.190847999999995c-5.8716 0-11.1575-3.5123-13.3775-8.9303-2.2671-5.3965-1.0189-11.607 3.1283-15.7573l29.8363-29.7923c27.1155-27.0705 27.1155-71.3718 0-98.4422L816.4547 98.0193c-13.5567-13.5352-31.4225-20.3141-49.2902-20.3141-17.8862 0-35.7499 6.7789-49.3076 20.3141l-29.8598 29.7892c-2.7668 2.7668-6.4625 4.2435-10.2226 4.2435-1.8842 0-3.7663-0.3656-5.5572-1.111-5.3944-2.2221-8.9334-7.5059-8.9334-13.355V75.439104c0-38.272-31.3774-73.9553-69.7385-73.9553H433.82272000000006c-38.3611 0-69.7385 35.6844-69.7385 73.9553v42.145792c0 5.8501-3.5123 11.134-8.9303 13.355-1.792 0.7465-3.6731 1.111-5.5552 1.111-3.7622 0-7.4578-1.4766-10.2461-4.2435l-29.8373-29.7892c-13.5578-13.5352-31.4225-20.3141-49.3117-20.3141-17.8647 0-35.7294 6.7789-49.3087 20.3141L97.963 210.7873c-27.138 27.0705-27.138 71.3718 0 98.4422l29.8353 29.7923c4.1503 4.1503 5.374 10.3619 3.1529 15.7573-2.2446 5.418-7.5284 8.9303-13.399 8.9303H75.36025599999999c-38.3611 0-72.6405 31.3324-72.6405 69.6259v159.47264c0 38.2935 34.2804 69.6259 72.6405 69.6259h42.192896000000005c5.8706 0 11.1544 3.5144 13.399 8.9098 2.22 5.4159 0.9974 11.6296-3.1529 15.7573l-29.8353 29.8148c-27.138 27.0705-27.138 71.3697 0 98.4381l112.9298 112.77c13.5803 13.5363 31.445 20.3141 49.3087 20.3141 17.8903 0 35.755-6.7779 49.3117-20.3141l29.8373-29.7923c2.7894-2.7617 6.484-4.2383 10.2461-4.2383 1.8821 0 3.7632 0.3635 5.5552 1.11 5.419 2.2221 8.9303 7.5059 8.9303 13.356v42.124288c0 38.2925 31.3774 72.5258 69.7385 72.5258h159.722496c38.3611 0 69.7385-34.2344 69.7385-72.5258v-42.124288c0-5.8501 3.5389-11.134 8.9334-13.356 1.791-0.7465 3.6731-1.11 5.5572-1.11 3.7612 0 7.4557 1.4756 10.2226 4.2383l29.8598 29.7923c13.5578 13.5363 31.4225 20.3141 49.3076 20.3141 17.8678 0 35.7335-6.7779 49.2902-20.3141l112.9503-112.77c27.1155-27.0684 27.1155-71.3677 0-98.4381l-29.8363-29.8148c-4.1472-4.1267-5.3955-10.3414-3.1283-15.7573 2.2211-5.3965 7.5059-8.9098 13.3775-8.9098h42.190847999999995c38.3601 0 72.6415-31.3324 72.6415-69.6259V433.33529599999997C1024.6513 395.0418 990.3698 363.7094 952.0097 363.7094zM954.9353 592.8079h-45.11744c-34.1903 0-64.7311 20.3817-77.8097 51.8963-13.0806 31.5382-5.9187 67.4939 18.2508 91.6419l29.8588 29.7882L767.1644 878.9043l-29.8547-29.8138c-15.8956-15.8679-37.0493-24.62-59.5364-24.62-11.134 0-21.9699 2.1524-32.2417 6.3918-31.5802 13.0836-51.9864 43.5538-51.9864 77.698v45.024256H433.82272000000006v-45.024256c0-34.1443-20.4042-64.6144-51.9864-77.6755-10.2687-4.2619-21.1077-6.4143-32.2386-6.4143-22.4911 0-43.6449 8.7521-59.5364 24.62l-29.8588 29.8138L147.2737 766.1343l29.8373-29.7882c24.1664-24.148 31.3324-60.1037 18.2487-91.6419-13.0806-31.5136-43.6193-51.8963-77.8066-51.8963H72.457216V433.33529599999997h45.095936c34.1883 0 64.726-20.3807 77.8066-51.8963 13.0836-31.5372 5.9177-67.5164-18.2487-91.6408l-29.8373-29.7892 112.9277-112.7711 29.8588 29.8148c15.8925 15.87 37.0452 24.6211 59.5364 24.6211 11.1084 0 21.9699-2.1524 32.2386-6.4174 31.5822-13.058 51.9864-43.5517 51.9864-77.6724V71.109632h159.722496v46.475264c0 34.1207 20.4063 64.6144 51.9864 77.6724 10.2717 4.265 21.1077 6.4174 32.2417 6.4174 22.487 0 43.6398-8.7511 59.5364-24.6211l29.8547-29.8148 112.9544 112.7711-29.8588 29.7892c-24.1705 24.1244-31.3324 60.1037-18.2508 91.6183 13.0785 31.5372 43.6204 51.9178 77.8097 51.9178h45.11744V592.807936z" p-id="17290" fill="#696e78"></path></svg>