<?xml version="1.0" standalone="no"?><!DOCTYPE svg PUBLIC "-//W3C//DTD SVG 1.1//EN" "http://www.w3.org/Graphics/SVG/1.1/DTD/svg11.dtd"><svg class="icon" style="" viewBox="0 0 1024 1024" version="1.1" xmlns="http://www.w3.org/2000/svg" p-id="1506" xmlns:xlink="http://www.w3.org/1999/xlink" width="200" height="200"><defs><style type="text/css"><![CDATA[

]]></style></defs><path d="M856.704 496.704c-8.064 0-14.656 6.272-15.232 14.144l-0.128 0 0 314.56c0 4.16-3.456 7.616-7.68 7.616L237.504 833.024c-4.16 0-7.616-3.456-7.616-7.616L229.888 228.48c0-4.224 3.456-7.68 7.616-7.68l281.6 0c8.512 0 15.296-6.848 15.296-15.232 0-8.512-6.784-15.36-15.296-15.36L213.824 190.208c-8.448 0-15.296 6.848-15.296 15.36l0 643.52c0 8.512 6.848 15.296 15.296 15.296l642.816 0c8.448 0 15.232-6.784 15.232-15.296l0-335.36C872 513.152 872 512.576 872 512 872 503.552 865.152 496.704 856.704 496.704L856.704 496.704zM856.704 496.704" p-id="1507" fill="#696e78"></path><path d="M902.528 327.872l0-152.96c0-8.512-6.848-15.296-15.296-15.296l-152.96 0 0 0c-8.512 0-15.36 6.784-15.36 15.296 0 8.448 6.848 15.232 15.36 15.232l118.272 0L448 592.576C441.984 598.592 441.984 608.256 448 614.272c2.944 3.008 6.848 4.48 10.816 4.48s7.808-1.472 10.816-4.416l402.176-400.128 0.064 113.728 0 0 0 0c0 8.384 6.848 15.232 15.296 15.232S902.528 336.32 902.528 327.872C902.528 327.872 902.528 327.872 902.528 327.872L902.528 327.872zM902.528 327.872" p-id="1508" fill="#696e78"></path></svg>