<?xml version="1.0" standalone="no"?><!DOCTYPE svg PUBLIC "-//W3C//DTD SVG 1.1//EN" "http://www.w3.org/Graphics/SVG/1.1/DTD/svg11.dtd"><svg class="icon" style="" viewBox="0 0 1397 1024" version="1.1" xmlns="http://www.w3.org/2000/svg" p-id="9565" xmlns:xlink="http://www.w3.org/1999/xlink" width="43.65625" height="32"><defs><style type="text/css"><![CDATA[

]]></style></defs><path d="M1086.060603 217.212112 1086.060603 190.959582C1086.060603 85.474769 1003.345523-9.0e-06 899.878785-9.0e-06L187.345119-9.0e-06C83.875183-9.0e-06-3.0e-06 85.474766-3.0e-06 190.959579L-3.0e-06 833.035484C-3.0e-06 938.500617 83.875183 1023.999991 187.345119 1023.999991L899.878785 1023.999991C1003.345523 1023.999991 1086.060603 938.498994 1086.060603 833.035503L1086.060603 806.787869C1086.060603 806.787869 1341.465823 937.190338 1372.527746 916.627658 1403.580081 896.076452 1405.030062 125.898257 1372.526148 104.333595 1340.014244 82.747616 1086.060603 217.212112 1086.060603 217.212112ZM93.090906 185.953238C93.090906 134.666785 134.689159 93.0909 186.00438 93.0909L900.056219 93.0909C951.370913 93.0909 992.969694 134.677471 992.969694 186.360591L992.969694 370.87156C992.969694 370.87156 1075.543208 315.202296 1148.121209 279.272718 1220.69921 243.343142 1294.905183 220.268398 1294.905183 220.268398 1294.905183 220.268398 1308.668677 341.768397 1308.668677 526.928704 1308.668677 714.211465 1294.905183 801.920506 1294.905183 801.920506 1294.905183 801.920506 1230.967827 786.150574 1148.121209 744.727263 1065.274591 703.303956 992.969694 651.636354 992.969694 651.636354L992.969694 837.915307C992.969694 889.274352 951.371441 930.909082 900.056219 930.909082L186.00438 930.909082C134.689685 930.909082 93.090906 889.361548 93.090906 838.046745L93.090906 185.953238ZM821.370868 559.512449C708.117032 628.250429 594.863197 696.988405 481.609362 765.726385 385.203759 824.238539 385.203759 728.187954 385.203759 728.187954L385.203759 279.951873C385.203759 279.951873 385.203759 183.901284 491.311467 248.302011 580.639859 302.518747 726.774759 391.213469 821.341466 448.609531 875.481169 481.46894 912.71891 505.350644 821.370868 559.512449Z" p-id="9566" fill="#696e78"></path></svg>