<?xml version="1.0" standalone="no"?><!DOCTYPE svg PUBLIC "-//W3C//DTD SVG 1.1//EN" "http://www.w3.org/Graphics/SVG/1.1/DTD/svg11.dtd"><svg class="icon" style="" viewBox="0 0 1024 1024" version="1.1" xmlns="http://www.w3.org/2000/svg" p-id="3159" xmlns:xlink="http://www.w3.org/1999/xlink" width="200" height="200"><defs><style type="text/css"><![CDATA[

]]></style></defs><path d="M237.776 845.514c-42.693 0-77.434-34.747-77.434-77.446v-269.172c0-43.949 36.18-82.501 77.434-82.501h75.717c94.422 0 165.619-72.506 165.619-168.649v-19.851c0-41.095 37.232-77.136 79.665-77.136h2.018c32.547 0 62.466 21.573 72.755 52.452l5.024 13.942c15.227 45.638 17.177 93.743 5.735 139.439l-2.541 10.668c-0.761 6.914-4.13 19.159-9.708 31.425h163.694c23.993 0 46.219 11.241 60.979 30.825 14.922 19.818 19.794 45.687 13.040 69.21l-82.766 289.031c-9.254 33.939-39.994 57.763-74.695 57.763h-474.545zM237.776 455.912c-19.492 0-37.918 20.887-37.918 42.986v269.172c0 20.922 17.010 37.938 37.918 37.938h474.542c16.942 0 32.005-11.873 36.646-28.886l82.836-289.298c3.355-11.674 0.881-24.581-6.621-34.54-7.22-9.588-17.939-15.085-29.419-15.085h-222.951v-39.516h13.010c6.15-4.698 16.183-27.489 16.621-34.636v-0.857l0.336-2.735 3.153-13.248c9.659-38.586 8.025-79.026-4.675-117.117l-5.033-13.938c-5.127-15.385-19.648-25.891-35.424-25.891h-2.018c-20.645 0-40.151 18.284-40.151 37.628v19.851c0 118.67-88.193 208.162-205.131 208.162h-75.718z" p-id="3160" fill="#696e78"></path><path d="M712.322 830.907h-474.542c-34.644 0-62.826-28.189-62.826-62.842v-269.172c0-36.172 29.358-67.892 62.826-67.892h75.717c102.743 0 180.22-78.783 180.22-183.249v-19.851c0-33.318 30.405-62.538 65.061-62.538h2.018c26.349 0 50.569 17.461 58.898 42.465l5.139 14.272c14.251 42.705 16.071 87.947 5.308 130.948l-2.82 11.859c-0.462 8.135-8.444 33.841-21.269 48.388h189.702c19.367 0 37.337 9.119 49.318 25.007 12.176 16.169 16.167 37.245 10.667 56.384l-82.774 289.051c-7.562 27.748-32.514 47.171-60.654 47.171zM237.776 441.305c-27.489 0-52.524 27.449-52.524 57.594v269.172c0 28.969 23.562 52.539 52.524 52.539h474.542c23.504 0 44.367-16.305 50.734-39.646l82.791-289.122c4.609-16.043 1.25-33.741-8.996-47.345-10.005-13.291-24.98-20.905-41.086-20.905h-208.342v-10.303c14.201 0 29.623-38.988 29.623-49.086l0.142-1.188 2.959-12.415c10.295-41.148 8.549-84.393-5.033-125.119l-5.147-14.272c-6.988-20.97-27.182-35.539-49.166-35.539h-2.018c-28.659 0-54.762 24.891-54.762 52.234v19.851c0 110.349-81.914 193.557-190.529 193.557h-75.717z" p-id="3161" fill="#696e78"></path><path d="M321.776 827.806c-10.891 0-19.757-8.86-19.757-19.757v-354.187c0-10.891 8.871-19.757 19.757-19.757 10.892 0 19.757 8.871 19.757 19.757v354.187c0 10.892-8.86 19.757-19.757 19.757z" p-id="3162" fill="#696e78"></path><path d="M321.776 813.197c-2.85 0-5.151-2.302-5.151-5.151v-354.187c0-2.85 2.302-5.151 5.151-5.151 2.851 0 5.151 2.302 5.151 5.151v354.187c0 2.844-2.299 5.151-5.151 5.151z" p-id="3163" fill="#696e78"></path></svg>