<?xml version="1.0" standalone="no"?><!DOCTYPE svg PUBLIC "-//W3C//DTD SVG 1.1//EN" "http://www.w3.org/Graphics/SVG/1.1/DTD/svg11.dtd"><svg t="1489252572462" class="icon" style="" viewBox="0 0 1024 1024" version="1.1" xmlns="http://www.w3.org/2000/svg" p-id="1000" xmlns:xlink="http://www.w3.org/1999/xlink" width="32" height="32"><defs><style type="text/css"></style></defs><path d="M402.262528 694.878208q0 22.85568-7.1424 46.854144t-24.569856 43.425792-41.42592 19.427328-41.42592-19.427328-24.569856-43.425792-7.1424-46.854144 7.1424-46.854144 24.569856-43.425792 41.42592-19.427328 41.42592 19.427328 24.569856 43.425792 7.1424 46.854144zm365.69088 0q0 22.85568-7.1424 46.854144t-24.569856 43.425792-41.42592 19.427328-41.42592-19.427328-24.569856-43.425792-7.1424-46.854144 7.1424-46.854144 24.569856-43.425792 41.42592-19.427328 41.42592 19.427328 24.569856 43.425792 7.1424 46.854144zm91.42272 0q0-68.56704-39.426048-116.563968t-106.850304-47.996928q-23.427072 0-111.42144 11.999232-40.568832 6.285312-89.708544 6.285312t-89.708544-6.285312q-86.851584-11.999232-111.42144-11.999232-67.424256 0-106.850304 47.996928t-39.426048 116.563968q0 50.282496 18.284544 87.708672t46.282752 58.853376 69.709824 34.28352 79.99488 16.856064 85.137408 3.999744l95.993856 0q46.854144 0 85.137408-3.999744t79.99488-16.856064 69.709824-34.28352 46.282752-58.853376 18.284544-87.708672zm127.991808-100.564992q0 118.278144-34.854912 189.130752-21.712896 43.997184-60.281856 75.995136t-80.566272 49.139712-97.13664 27.14112-97.993728 12.570624-95.422464 2.571264q-44.568576 0-81.137664-1.714176t-84.28032-7.1424-87.13728-17.14176-78.280704-29.426688-69.138432-46.282752-49.139712-65.71008q-35.426304-70.281216-35.426304-189.130752 0-135.419904 77.709312-226.271232-15.427584-46.854144-15.427584-97.13664 0-66.281472 29.140992-124.563456 61.710336 0 108.56448 22.569984t107.993088 70.566912q83.994624-19.99872 176.560128-19.99872 84.566016 0 159.98976 18.284544 59.99616-46.854144 106.850304-69.138432t107.993088-22.284288q29.140992 58.281984 29.140992 124.563456 0 49.711104-15.427584 95.993856 77.709312 91.42272 77.709312 227.414016z" p-id="1001" fill="#FFF0E9"></path></svg>